<svg width="512" height="400" viewBox="0 0 512 400" fill="none" xmlns="http://www.w3.org/2000/svg">
<path d="M196 166V310C196 332.091 213.909 350 236 350H368L408 390L448 350H462C484.091 350 502 332.091 502 310V166C502 143.909 484.091 126 462 126H236C213.909 126 196 143.909 196 166Z" fill="#A43AD6"/>
<path d="M10.025 50V194C10.025 216.091 27.934 234 50.025 234H75.168L115.168 274L155.168 234H276.025C298.116 234 316.025 216.091 316.025 194V50C316.025 27.909 298.116 10 276.025 10H50.025C27.933 10 10.025 27.909 10.025 50Z" fill="#EE488E"/>
<path d="M361.5 136C364.13 136 366.71 134.93 368.569 133.07C370.429 131.21 371.5 128.63 371.5 126C371.5 123.37 370.43 120.79 368.569 118.93C366.71 117.07 364.13 116 361.5 116C358.87 116 356.29 117.07 354.43 118.93C352.57 120.79 351.5 123.37 351.5 126C351.5 128.63 352.569 131.21 354.43 133.07C356.291 134.93 358.87 136 361.5 136Z" fill="black"/>
<path d="M462 116H398.25C392.728 116 388.25 120.477 388.25 126C388.25 131.523 392.728 136 398.25 136H462C478.542 136 492 149.458 492 166V310C492 326.542 478.542 340 462 340H448C445.348 340 442.805 341.054 440.929 342.929L408 375.858L375.071 342.929C373.195 341.054 370.652 340 368 340H236C219.458 340 206 326.542 206 310V274C206 268.477 201.522 264 196 264C190.478 264 186 268.477 186 274V310C186 337.57 208.43 360 236 360H363.857L400.928 397.071C402.882 399.024 405.44 400 408 400C410.56 400 413.118 399.024 415.071 397.071L452.143 360H462C489.57 360 512 337.57 512 310V166C512 138.43 489.57 116 462 116Z" fill="black"/>
<path d="M50.024 244H71.025L108.096 281.071C110.049 283.024 112.608 284 115.167 284C117.726 284 120.285 283.024 122.238 281.071L159.311 244H276.025C303.595 244 326.025 221.57 326.025 194V50C326.025 22.43 303.595 0 276.025 0H50.025C22.455 0 0.0249939 22.43 0.0249939 50V194C0.0239939 221.57 22.454 244 50.024 244ZM20.024 50C20.024 33.458 33.482 20 50.024 20H276.024C292.566 20 306.024 33.458 306.024 50V194C306.024 210.542 292.566 224 276.024 224H155.168C152.516 224 149.973 225.054 148.097 226.929L115.168 259.858L82.239 226.929C80.363 225.054 77.82 224 75.168 224H50.024C33.482 224 20.024 210.542 20.024 194V50Z" fill="black"/>
<path d="M361.5 186C357.48 186 353.851 188.407 352.287 192.111L316.825 276.111C314.678 281.199 317.06 287.065 322.148 289.213C327.238 291.359 333.102 288.977 335.251 283.889L340.263 272.016H382.737L387.749 283.889C389.361 287.708 393.066 290.002 396.966 290.002C398.263 290.002 399.582 289.748 400.852 289.212C405.94 287.064 408.323 281.198 406.175 276.11L370.713 192.11C369.149 188.407 365.52 186 361.5 186ZM374.293 252.016H348.706L361.499 221.712L374.293 252.016Z" fill="black"/>
<path d="M158.524 176C169.521 176 179.626 172.116 187.548 165.655L197.594 173.053C199.379 174.368 201.456 175.001 203.516 175.001C206.586 175.001 209.616 173.592 211.577 170.93C214.851 166.483 213.901 160.223 209.454 156.948L199.964 149.96C202.885 143.919 204.525 137.148 204.525 130.001V114.001C204.525 88.637 183.889 68.001 158.525 68.001C133.161 68.001 112.525 88.637 112.525 114.001V130.001C112.524 155.364 133.16 176 158.524 176ZM132.524 114C132.524 99.664 144.187 88 158.524 88C172.861 88 184.524 99.664 184.524 114V130C184.524 132.69 184.113 135.285 183.352 137.727L172.788 129.948C168.341 126.672 162.082 127.623 158.806 132.071C155.532 136.518 156.482 142.778 160.929 146.053L170.473 153.081C166.893 154.942 162.831 156.001 158.525 156.001C144.188 156.001 132.525 144.337 132.525 130.001V114H132.524Z" fill="black"/>
</svg>
